<svg xmlns="http://www.w3.org/2000/svg" width="20.742" height="22.627" viewBox="0 0 20.742 22.627">
  <g id="Group_228" data-name="Group 228" transform="translate(-1757.292 -69)">
    <g id="Group_160" data-name="Group 160" transform="translate(1451.138 -529)">
      <g id="Group_32" data-name="Group 32" transform="translate(306.154 598)">
        <path id="Path_39" data-name="Path 39" d="M301,479.627H289.687a4.714,4.714,0,0,1-4.714-4.714V457h20.742v17.913A4.715,4.715,0,0,1,301,479.627Zm2.828-20.742h-16.97v16.028a2.828,2.828,0,0,0,2.828,2.828H301a2.828,2.828,0,0,0,2.828-2.828Zm-8.485,10.371a4.715,4.715,0,0,1-4.714-4.714v-1.886h1.886v1.886a2.828,2.828,0,0,0,5.657,0v-1.886h1.886v1.886A4.714,4.714,0,0,1,295.344,469.257Z" transform="translate(-284.973 -457)" fill="#1b1b1b"/>
      </g>
    </g>
  </g>
</svg>
